<?xml version="1.0" encoding="utf-8"?>
<!-- Generator: Adobe Illustrator 16.0.4, SVG Export Plug-In . SVG Version: 6.00 Build 0)  -->
<!DOCTYPE svg PUBLIC "-//W3C//DTD SVG 1.1//EN" "http://www.w3.org/Graphics/SVG/1.1/DTD/svg11.dtd">
<svg version="1.1" xmlns="http://www.w3.org/2000/svg" xmlns:xlink="http://www.w3.org/1999/xlink" x="0px" y="0px"
	 width="1143.792px" height="143.602px" viewBox="0 0 1143.792 143.602" enable-background="new 0 0 1143.792 143.602"
	 xml:space="preserve">
<g id="Layer_1">
	<g>
		<path fill="#333333" d="M51,143.602c-14.668,0-26.834-4.566-36.5-13.701C4.832,120.77,0,108.935,0,94.399V0h21.6v93.399
			c0,9.469,2.631,16.969,7.9,22.5c5.266,5.535,12.431,8.302,21.5,8.302c8.931,0,16.1-2.767,21.5-8.302c5.4-5.53,8.1-13.03,8.1-22.5
			V0h21.6v94.399c0,14.535-4.834,26.369-14.5,35.5C78.031,139.034,65.8,143.602,51,143.602z"/>
		<path fill="#333333" d="M219.766,142.616l-29.912-60.244l-27.056,0.027V142.6h-21.6V0h55.198c13.332,0,24.031,3.834,32.104,11.5
			c8.062,7.668,12.101,17.7,12.101,30.1c0,9.733-2.636,17.899-7.899,24.5c-5.271,6.6-12.101,11.033-20.5,13.299L245,142.6
			L219.766,142.616z M194.796,19.4h-32v44.8h32c7.201,0,13.031-1.975,17.5-5.925c4.468-3.95,6.701-9.409,6.701-16.375
			c0-6.962-2.201-12.453-6.602-16.473C208,21.409,202.128,19.4,194.796,19.4z"/>
		<path fill="#333333" d="M354.375,142.493l-31.181-54.725l-30.845,54.802l-24.756,0.025l44.006-73.2L270.396,0l24.867-0.038
			l27.918,50.94l28.15-50.94L376.199,0l-41.203,69.397l44.203,73.205L354.375,142.493z"/>
	</g>
	<g enable-background="new    ">
		<path fill="#3D86DF" d="M490.4,83.298h-9.21v-8.855c-1.889,3.031-4.595,5.529-8.116,7.497c-3.522,1.967-7.232,2.952-11.128,2.952
			c-7.046,0-12.614-3.139-16.707-9.417c-4.094-6.277-6.14-14.236-6.14-23.879c0-9.012,2.135-16.48,6.405-22.403
			s9.927-8.885,16.973-8.885c7.752,0,13.991,3.149,18.713,9.446V0h9.21V83.298z M481.19,64.466V38.904
			c-4.407-7.084-9.721-10.626-15.938-10.626c-5.077,0-9.091,2.253-12.043,6.76c-2.952,4.507-4.428,10.204-4.428,17.09
			c0,7.084,1.388,12.939,4.162,17.563c2.774,4.625,6.581,6.937,11.423,6.937c2.322,0,4.664-0.629,7.025-1.889
			c2.36-1.26,4.584-3.148,6.67-5.668C480.147,66.553,481.19,65.018,481.19,64.466z"/>
		<path fill="#3D86DF" d="M565.02,52.836h-42.209c0,6.966,2.016,12.713,6.05,17.238c4.034,4.526,8.983,6.789,14.848,6.789
			c5.588,0,11.354-1.004,17.298-3.011l1.593,7.379c-5.431,2.439-11.768,3.66-19.009,3.66c-9.131,0-16.491-2.931-22.079-8.797
			c-5.589-5.863-8.383-13.773-8.383-23.731c0-9.76,2.51-17.542,7.527-23.348c5.019-5.805,11.502-8.708,19.452-8.708
			c7.083,0,13.007,2.696,17.769,8.088c4.763,5.393,7.144,12.574,7.144,21.548V52.836z M554.985,45.339
			c0-4.802-1.497-8.845-4.487-12.132c-2.991-3.286-6.337-4.93-10.036-4.93c-4.763,0-8.707,1.575-11.836,4.723
			c-3.129,3.149-4.871,7.261-5.225,12.338H554.985z"/>
		<path fill="#3D86DF" d="M638.518,21.784L615.2,83.298h-8.383l-23.201-61.514h10.036l17.416,48.94l17.415-48.94H638.518z"/>
		<path fill="#3D86DF" d="M710.126,52.836h-42.208c0,6.966,2.015,12.713,6.052,17.238c4.032,4.526,8.981,6.789,14.846,6.789
			c5.588,0,11.354-1.004,17.298-3.011l1.593,7.379c-5.431,2.439-11.767,3.66-19.009,3.66c-9.131,0-16.491-2.931-22.078-8.797
			c-5.59-5.863-8.385-13.773-8.385-23.731c0-9.76,2.511-17.542,7.528-23.348c5.019-5.805,11.502-8.708,19.452-8.708
			c7.083,0,13.007,2.696,17.77,8.088c4.762,5.393,7.142,12.574,7.142,21.548V52.836z M700.092,45.339
			c0-4.802-1.497-8.845-4.487-12.132c-2.991-3.286-6.336-4.93-10.036-4.93c-4.763,0-8.707,1.575-11.836,4.723
			c-3.129,3.149-4.871,7.261-5.225,12.338H700.092z"/>
		<path fill="#3D86DF" d="M776.365,83.298h-25.148V7.97h-16.058V0h25.267v75.329h15.939V83.298z"/>
		<path fill="#3D86DF" d="M829.555,20.308c8.462,0,15.192,2.952,20.189,8.855c4.999,5.903,7.497,13.676,7.497,23.319
			c0,9.721-2.498,17.553-7.497,23.496c-4.997,5.943-11.728,8.914-20.189,8.914c-8.501,0-15.242-2.961-20.22-8.885
			c-4.979-5.923-7.468-13.764-7.468-23.525c0-9.682,2.499-17.464,7.498-23.348C814.363,23.25,821.093,20.308,829.555,20.308z
			 M829.555,76.863c5.587,0,9.996-2.362,13.225-7.084c3.227-4.723,4.841-10.449,4.841-17.179c0-7.084-1.596-12.909-4.781-17.475
			c-3.188-4.565-7.616-6.848-13.284-6.848c-5.708,0-10.134,2.253-13.282,6.76c-3.149,4.507-4.724,10.361-4.724,17.563
			c0,6.848,1.595,12.604,4.781,17.268C819.519,74.531,823.925,76.863,829.555,76.863z"/>
		<path fill="#3D86DF" d="M887.764,29.753c2.046-2.834,4.81-5.116,8.294-6.848c3.482-1.731,7.152-2.598,11.011-2.598
			c7.083,0,12.642,2.922,16.677,8.767c4.034,5.845,6.051,13.451,6.051,22.817c0,9.446-2.116,17.307-6.348,23.584
			c-4.23,6.278-9.927,9.417-17.089,9.417c-3.818,0-7.391-0.955-10.714-2.863c-3.328-1.909-5.955-4.437-7.882-7.586v33.177h-9.21
			V21.784h9.21V29.753z M887.764,38.904v25.562c1.73,3.463,4.072,6.356,7.023,8.678c2.953,2.323,6.002,3.483,9.152,3.483
			c4.959,0,8.903-2.322,11.836-6.967c2.931-4.643,4.397-10.409,4.397-17.297c0-7.084-1.396-12.87-4.191-17.356
			c-2.795-4.487-6.691-6.73-11.688-6.73C897.8,28.277,892.29,31.82,887.764,38.904z"/>
		<path fill="#3D86DF" d="M1000.342,52.836h-42.209c0,6.966,2.016,12.713,6.052,17.238c4.032,4.526,8.982,6.789,14.847,6.789
			c5.587,0,11.354-1.004,17.297-3.011l1.593,7.379c-5.431,2.439-11.767,3.66-19.009,3.66c-9.131,0-16.491-2.931-22.078-8.797
			c-5.59-5.863-8.384-13.773-8.384-23.731c0-9.76,2.51-17.542,7.528-23.348c5.018-5.805,11.501-8.708,19.451-8.708
			c7.084,0,13.007,2.696,17.77,8.088c4.763,5.393,7.143,12.574,7.143,21.548V52.836z M990.307,45.339
			c0-4.802-1.497-8.845-4.486-12.132c-2.992-3.286-6.337-4.93-10.037-4.93c-4.762,0-8.706,1.575-11.836,4.723
			c-3.129,3.149-4.871,7.261-5.224,12.338H990.307z"/>
		<path fill="#3D86DF" d="M1072.01,23.437l-3.719,8.855c-4.054-1.771-7.556-2.656-10.509-2.656c-2.714,0-5.371,0.778-7.969,2.332
			c-2.597,1.555-4.988,3.778-7.174,6.671c-2.183,2.893-3.275,4.516-3.275,4.871v39.789h-9.15V21.784h9.15V34.24
			c4.919-9.288,11.295-13.933,19.127-13.933C1063.135,20.308,1067.642,21.351,1072.01,23.437z"/>
		<path fill="#3D86DF" d="M1137.184,30.58c-5.155-1.692-10.016-2.539-14.581-2.539c-4.999,0-8.953,0.836-11.866,2.509
			c-2.913,1.673-4.369,3.907-4.369,6.7c0,1.771,0.669,3.316,2.008,4.634c1.337,1.319,4.014,2.549,8.029,3.69l8.796,2.539
			c4.054,1.142,7.358,2.509,9.918,4.103c2.559,1.594,4.477,3.523,5.756,5.786c1.278,2.264,1.918,4.89,1.918,7.881
			c0,5.865-2.46,10.5-7.379,13.903c-4.919,3.405-11.177,5.107-18.772,5.107c-7.557,0-13.796-1.143-18.715-3.424l1.771-7.969
			c5.155,2.44,10.686,3.66,16.588,3.66c5.116,0,9.278-0.954,12.485-2.863c3.208-1.908,4.812-4.437,4.812-7.585
			c0-2.125-0.797-4.024-2.39-5.697c-1.596-1.672-5.343-3.414-11.248-5.225c-4.762-1.456-8.264-2.548-10.508-3.276
			c-2.243-0.728-4.329-1.8-6.258-3.217c-1.928-1.417-3.395-3.108-4.397-5.077c-1.003-1.967-1.506-4.171-1.506-6.612
			c0-5.313,2.321-9.524,6.967-12.633c4.645-3.108,10.803-4.664,18.478-4.664c4.959,0,10.469,0.847,16.53,2.539L1137.184,30.58z"/>
	</g>
</g>
<g id="Layer_2">
</g>
</svg>
